# xmcd
#
# Track frame offsets:
#	150
#	20255
#	53512
#	71787
#	99032
#	124522
#	142897
#	170127
#	198740
#	224470
#
# Disc length: 3420 seconds
# Revision: 0
# Processed by: cddbd v1.5.2PL0 Copyright (c) Steve Scherf et al.
# Submitted via: dBpowerAMP V12.0
#
DISCID=8a0d5a0a
DTITLE=Various Artist - Dem tan ben Ngu
DYEAR=1995
DGENRE=Country
TTITLE0=Quynh Giao and Kim Tuoc - Duoi nang hong
TTITLE1=Kim Tuoc - Ngoc lan
TTITLE2=Quynh Giao - Ang may chieu
TTITLE3=Kim Tuoc - Dem ngan tinh dai
TTITLE4=Quynh Giao - Buon xa vang
TTITLE5=Quynh Giao and Kim Tuoc - Phut say huong
TTITLE6=Quynh Giao - Dem tan ben Ngu
TTITLE7=Kim Tuoc - Song long
TTITLE8=Quynh Giao - Troi xanh tham
TTITLE9=Kim Tuoc - Tieng xua
EXTD=
EXTT0=
EXTT1=
EXTT2=
EXTT3=
EXTT4=
EXTT5=
EXTT6=
EXTT7=
EXTT8=
EXTT9=
PLAYORDER=
